<svg width="30" height="30" viewBox="0 0 30 30" fill="none" xmlns="http://www.w3.org/2000/svg">
<path d="M12.1306 16.5497C12.0364 16.5497 10.0603 16.5503 9.14889 16.5494C8.67969 16.5491 8.51229 16.3805 8.51229 15.9083C8.51169 14.6954 8.51139 13.4825 8.51229 12.2696C8.51259 11.8034 8.68959 11.6255 9.15279 11.6252C10.0642 11.6246 12.0295 11.6249 12.1306 11.6249C12.1306 11.5418 12.1303 9.79074 12.1306 8.98434C12.1312 7.79214 12.3439 6.65094 12.9496 5.60604C13.5697 4.53654 14.4721 3.80394 15.6286 3.38034C16.3693 3.10884 17.1382 3.00054 17.9242 2.99994C18.9076 2.99934 19.891 3.00024 20.8747 3.00204C21.2974 3.00264 21.4849 3.18954 21.4858 3.61524C21.4876 4.75614 21.4876 5.89704 21.4858 7.03764C21.4852 7.46784 21.3055 7.64064 20.8732 7.64544C20.0671 7.65414 19.2604 7.64874 18.4552 7.68114C17.6419 7.68114 17.2141 8.07834 17.2141 8.92014C17.1946 9.81054 17.206 10.7018 17.206 11.6246C17.2822 11.6246 19.5967 11.6243 20.6785 11.6246C21.1699 11.6246 21.3379 11.7935 21.3379 12.2876C21.3379 13.4939 21.3376 14.7005 21.3367 15.9068C21.3364 16.3937 21.1786 16.5491 20.6842 16.5494C19.6024 16.55 17.2969 16.5497 17.1961 16.5497V26.3132C17.1961 26.8337 17.0323 26.9996 16.5187 26.9996C15.2665 26.9996 14.014 26.9999 12.7618 26.9996C12.3079 26.9996 12.1309 26.8232 12.1309 26.3693C12.1306 23.1896 12.1306 16.6613 12.1306 16.5497Z" fill="white"/>
</svg>
