<svg width="30" height="30" viewBox="0 0 30 30" fill="none" xmlns="http://www.w3.org/2000/svg">
<path d="M20.6586 1H9.34135C4.74191 1 1 4.74191 1 9.34135V20.6586C1 25.2581 4.74191 29 9.34135 29H20.6586C25.2581 29 29 25.2581 29 20.6586V9.34135C29 4.74191 25.258 1 20.6586 1ZM26.1832 20.6586C26.1832 23.7097 23.7097 26.1832 20.6586 26.1832H9.34135C6.29025 26.1832 3.8168 23.7097 3.8168 20.6586V9.34135C3.8168 6.2902 6.29025 3.8168 9.34135 3.8168H20.6586C23.7097 3.8168 26.1832 6.2902 26.1832 9.34135V20.6586Z" fill="white"/>
<path d="M14.9996 7.75781C11.0065 7.75781 7.75781 11.0065 7.75781 14.9996C7.75781 18.9926 11.0065 22.2414 14.9996 22.2414C18.9927 22.2414 22.2414 18.9927 22.2414 14.9996C22.2414 11.0064 18.9927 7.75781 14.9996 7.75781ZM14.9996 19.4246C12.5557 19.4246 10.5746 17.4435 10.5746 14.9996C10.5746 12.5557 12.5558 10.5746 14.9996 10.5746C17.4435 10.5746 19.4246 12.5557 19.4246 14.9996C19.4246 17.4434 17.4434 19.4246 14.9996 19.4246Z" fill="white"/>
<path d="M22.2548 9.54796C23.2132 9.54796 23.9901 8.77105 23.9901 7.81268C23.9901 6.85431 23.2132 6.07739 22.2548 6.07739C21.2964 6.07739 20.5195 6.85431 20.5195 7.81268C20.5195 8.77105 21.2964 9.54796 22.2548 9.54796Z" fill="white"/>
</svg>
