<svg width="30" height="30" viewBox="0 0 30 30" fill="none" xmlns="http://www.w3.org/2000/svg">
<path d="M15.7553 1C8.08118 1 4 5.91772 4 11.28C4 13.7668 5.38956 16.868 7.61391 17.8515C7.95168 18.0038 8.13544 17.939 8.21069 17.6258C8.27719 17.3877 8.56946 16.2414 8.71121 15.7007C8.75497 15.5274 8.73221 15.3769 8.59221 15.2141C7.85367 14.3601 7.2674 12.8043 7.2674 11.3447C7.2674 7.6048 10.2408 3.97338 15.3003 3.97338C19.6755 3.97338 22.7364 6.81551 22.7364 10.8809C22.7364 15.4749 20.3055 18.653 17.1466 18.653C15.3983 18.653 14.0962 17.281 14.5092 15.5834C15.008 13.5621 15.9863 11.3885 15.9863 9.93065C15.9863 8.62335 15.2478 7.5418 13.7392 7.5418C11.9594 7.5418 10.5155 9.30413 10.5155 11.6702C10.5155 13.1736 11.0476 14.1886 11.0476 14.1886C11.0476 14.1886 9.28699 21.3009 8.95973 22.6292C8.4067 24.8781 9.03498 28.52 9.08923 28.8333C9.12248 29.0065 9.31674 29.0608 9.42525 28.919C9.5985 28.6915 11.7266 25.6551 12.3234 23.4605C12.5404 22.6607 13.4312 19.4178 13.4312 19.4178C14.0175 20.4766 15.7098 21.3639 17.5124 21.3639C22.8746 21.3639 26.7493 16.651 26.7493 10.8022C26.73 5.19494 21.9313 1 15.7553 1Z" fill="white"/>
</svg>
