<svg width="30" height="31" viewBox="0 0 30 31" fill="none" xmlns="http://www.w3.org/2000/svg">
<path d="M28.4673 7.97679C28.1432 6.77086 27.1933 5.82025 25.9886 5.49553C23.7877 4.89282 14.984 4.89282 14.984 4.89282C14.984 4.89282 6.18072 4.89282 3.97985 5.47268C2.79831 5.79705 1.82516 6.77103 1.50106 7.97679C0.921875 10.1794 0.921875 14.7473 0.921875 14.7473C0.921875 14.7473 0.921875 19.3381 1.50106 21.5177C1.8255 22.7235 2.77513 23.6741 3.98002 23.9988C6.2039 24.6017 14.9844 24.6017 14.9844 24.6017C14.9844 24.6017 23.7877 24.6017 25.9886 24.0218C27.1934 23.6973 28.1432 22.7467 28.4677 21.5409C29.0467 19.3381 29.0467 14.7704 29.0467 14.7704C29.0467 14.7704 29.0699 10.1794 28.4673 7.97679ZM12.1811 18.9672V10.5273L19.5018 14.7473L12.1811 18.9672Z" fill="white"/>
</svg>
